<svg xmlns="http://www.w3.org/2000/svg" viewBox="0 0 800 700" width="800" height="700">
  <defs>
    <linearGradient id="termBg" x1="0%" y1="0%" x2="0%" y2="100%">
      <stop offset="0%" style="stop-color:#0d1117;stop-opacity:1" />
      <stop offset="100%" style="stop-color:#0a0e13;stop-opacity:1" />
    </linearGradient>
    <linearGradient id="headerGrad" x1="0%" y1="0%" x2="0%" y2="100%">
      <stop offset="0%" style="stop-color:#21262d;stop-opacity:1" />
      <stop offset="100%" style="stop-color:#161b22;stop-opacity:1" />
    </linearGradient>
    <filter id="shadow" x="-5%" y="-5%" width="110%" height="115%">
      <feDropShadow dx="0" dy="4" stdDeviation="8" flood-color="#000000" flood-opacity="0.6"/>
    </filter>
    <style>
      .title { font-family: 'JetBrains Mono', monospace; font-size: 16px; font-weight: bold; fill: #e6edf3; }
      .label { font-family: 'JetBrains Mono', monospace; font-size: 14px; font-weight: bold; fill: #58a6ff; }
      .colon { font-family: 'JetBrains Mono', monospace; font-size: 14px; font-weight: bold; fill: #8b949e; }
      .value { font-family: 'JetBrains Mono', monospace; font-size: 14px; font-weight: bold; fill: #e6edf3; }
      .highlight { fill: #e6edf3; font-family: 'JetBrains Mono', monospace; font-size: 28px; font-weight: bold; text-anchor: middle; }
      /* Animation styles */
      @keyframes slideUpFade {
        from { opacity: 0; transform: translateY(20px); }
        to { opacity: 1; transform: translateY(0); }
      }
      .animated-block {
        opacity: 0;
        animation: slideUpFade 0.6s cubic-bezier(0.175, 0.885, 0.32, 1.275) forwards;
      }
      /* Neofetch takes ~2.65s to finish, so we start after that */
      .block-1 { animation-delay: 2.8s; }
      .block-2 { animation-delay: 3.1s; }
      .block-3 { animation-delay: 3.4s; }
    </style>
  </defs>

  <!-- BLOCK 1: GitHub Stats -->
  <g transform="translate(0, 0)" filter="url(#shadow)">
    <g class="animated-block block-1">
    
    <rect x="0" y="0" width="800" height="190" rx="12" ry="12" fill="#1c2128" />
    <rect x="0" y="0" width="800" height="38" rx="12" ry="12" fill="url(#headerGrad)" />
    <rect x="0" y="20" width="800" height="18" fill="url(#headerGrad)" />
    <circle cx="22" cy="19" r="6" fill="#ff5f57"/>
    <circle cx="42" cy="19" r="6" fill="#ffbd2e"/>
    <circle cx="62" cy="19" r="6" fill="#28c840"/>
    <rect x="0" y="38" width="800" height="152" rx="12" ry="12" fill="url(#termBg)" />
    <rect x="0" y="0" width="800" height="190" rx="12" ry="12" fill="none" stroke="#1f6feb" stroke-width="1.5" opacity="0.6"/>

    <text x="30" y="70" class="title"><tspan fill="#3fb950">Mohammed Shadin</tspan><tspan fill="#8b949e">'s </tspan><tspan fill="#58a6ff">GitHub Stats</tspan></text>
    
    <text x="30" y="105"><tspan class="label">Total Stars Earned</tspan><tspan class="colon">    : </tspan><tspan class="value">0</tspan></text>
    <text x="30" y="130"><tspan class="label">Total Commits</tspan><tspan class="colon">         : </tspan><tspan class="value">299 </tspan><tspan fill="#8b949e" font-size="12">(Inc. Private)</tspan></text>
    <text x="30" y="155"><tspan class="label">Total PRs</tspan><tspan class="colon">             : </tspan><tspan class="value">9</tspan></text>
    <text x="360" y="105"><tspan class="label">Total Issues</tspan><tspan class="colon">          : </tspan><tspan class="value">5</tspan></text>

    <!-- Rank Badge -->
    <g transform="translate(680, 115)">
      <circle cx="0" cy="0" r="40" fill="none" stroke="#21262d" stroke-width="8" />
      <circle cx="0" cy="0" r="40" fill="none" stroke="#3fb950" stroke-width="8" stroke-dasharray="251.3272" stroke-dashoffset="175.92904" transform="rotate(-90)" />
      <text x="0" y="10" font-family="'JetBrains Mono', monospace" font-size="32" font-weight="bold" fill="#e6edf3" text-anchor="middle">C</text>
    </g>
    </g>
  </g>

  <!-- BLOCK 2: Streaks -->
  <g transform="translate(0, 220)" filter="url(#shadow)">
    <g class="animated-block block-2">
    
    <rect x="0" y="0" width="800" height="190" rx="12" ry="12" fill="#1c2128" />
    <rect x="0" y="0" width="800" height="38" rx="12" ry="12" fill="url(#headerGrad)" />
    <rect x="0" y="20" width="800" height="18" fill="url(#headerGrad)" />
    <circle cx="22" cy="19" r="6" fill="#ff5f57"/>
    <circle cx="42" cy="19" r="6" fill="#ffbd2e"/>
    <circle cx="62" cy="19" r="6" fill="#28c840"/>
    <rect x="0" y="38" width="800" height="152" rx="12" ry="12" fill="url(#termBg)" />
    <rect x="0" y="0" width="800" height="190" rx="12" ry="12" fill="none" stroke="#1f6feb" stroke-width="1.5" opacity="0.6"/>

    <text x="400" y="24" text-anchor="middle" fill="#8b949e" font-size="13" font-family="'JetBrains Mono', monospace">streak_stats.sh</text>
    <text x="30" y="70" class="title">GitHub Streak Stats</text>
    
    <!-- Total Contributions -->
    <g transform="translate(160, 120)">
        <text x="0" y="0" class="highlight">323</text>
        <text x="0" y="30" class="streak-label">Total Contributions</text>
        <text x="0" y="55" class="streak-label" font-size="12">2021 - Present</text>
    </g>

    <!-- Current Streak -->
    <g transform="translate(400, 120)">
        <circle cx="0" cy="-15" r="40" fill="none" stroke="#21262d" stroke-width="6" />
        <circle cx="0" cy="-15" r="40" fill="none" stroke="#f0883e" stroke-width="6" stroke-dasharray="251.3272" stroke-dashoffset="251.3272" transform="rotate(-90 0 -15)" />
        <text x="0" y="-5" class="highlight" font-size="32">0</text>
        <text x="0" y="50" class="streak-label" fill="#f0883e" font-weight="bold" font-size="16">Current Streak</text>
        <text x="0" y="70" class="streak-label" font-size="12">None</text>
    </g>

    <!-- Longest Streak -->
    <g transform="translate(640, 120)">
        <text x="0" y="0" class="highlight">3</text>
        <text x="0" y="30" class="streak-label">Longest Streak</text>
        <text x="0" y="55" class="streak-label" font-size="12">Jun 14 - Jun 16</text>
    </g>
    </g>
  </g>

  <!-- BLOCK 3: Languages -->
  <g transform="translate(0, 440)" filter="url(#shadow)">
    <g class="animated-block block-3">
    
    <rect x="0" y="0" width="800" height="240" rx="12" ry="12" fill="#1c2128" />
    <rect x="0" y="0" width="800" height="38" rx="12" ry="12" fill="url(#headerGrad)" />
    <rect x="0" y="20" width="800" height="18" fill="url(#headerGrad)" />
    <circle cx="22" cy="19" r="6" fill="#ff5f57"/>
    <circle cx="42" cy="19" r="6" fill="#ffbd2e"/>
    <circle cx="62" cy="19" r="6" fill="#28c840"/>
    <rect x="0" y="38" width="800" height="202" rx="12" ry="12" fill="url(#termBg)" />
    <rect x="0" y="0" width="800" height="240" rx="12" ry="12" fill="none" stroke="#1f6feb" stroke-width="1.5" opacity="0.6"/>

    <text x="400" y="24" text-anchor="middle" fill="#8b949e" font-size="13" font-family="'JetBrains Mono', monospace">languages.sh</text>
    <text x="30" y="65" class="title">Most Used Languages</text>
    
    <g transform="translate(40, 95)">
        <!-- Stacked Bar -->
        <clipPath id="bar-clip">
            <rect x="0" y="0" width="720" height="12" rx="6" />
        </clipPath>
        <g clip-path="url(#bar-clip)">
            <rect x="0" y="0" width="565.793275239525" height="12" fill="#ff5f57" />
<rect x="565.793275239525" y="0" width="117.51382388935687" height="12" fill="#ffbd2e" />
<rect x="683.3070991288819" y="0" width="18.75789446307537" height="12" fill="#28c840" />
<rect x="702.0649935919572" y="0" width="10.954502173821952" height="12" fill="#58a6ff" />
<rect x="713.0194957657792" y="0" width="6.9805042342208266" height="12" fill="#d2a8ff" />

        </g>
        
        <!-- Language Labels -->
        <g transform="translate(0, 30)">
            
    <g transform="translate(0, 50)">
        <circle cx="6" cy="-1" r="6" fill="#ff5f57" />
        <text x="20" y="4" font-family="'JetBrains Mono', monospace" font-size="14" fill="#8b949e">TypeScript 78.6%</text>
    </g>
    
    <g transform="translate(240, 50)">
        <circle cx="6" cy="-1" r="6" fill="#ffbd2e" />
        <text x="20" y="4" font-family="'JetBrains Mono', monospace" font-size="14" fill="#8b949e">HTML 16.3%</text>
    </g>
    
    <g transform="translate(480, 50)">
        <circle cx="6" cy="-1" r="6" fill="#28c840" />
        <text x="20" y="4" font-family="'JetBrains Mono', monospace" font-size="14" fill="#8b949e">Python 2.6%</text>
    </g>
    
    <g transform="translate(0, 85)">
        <circle cx="6" cy="-1" r="6" fill="#58a6ff" />
        <text x="20" y="4" font-family="'JetBrains Mono', monospace" font-size="14" fill="#8b949e">CSS 1.5%</text>
    </g>
    
    <g transform="translate(240, 85)">
        <circle cx="6" cy="-1" r="6" fill="#d2a8ff" />
        <text x="20" y="4" font-family="'JetBrains Mono', monospace" font-size="14" fill="#8b949e">JavaScript 1.0%</text>
    </g>
    
        </g>
    </g>
    </g>
  </g>

</svg>